{"title":"Law Abiding Citizen (2009) R5 DVDRip XviD-MAX","uid":5193348,"size":944039959,"categoryP":"video","categoryS":"movies","magnet":"?xt=urn:btih:348683738a4438d253f5e324ae7d7fc8ff470d80&amp;dn=Law+Abiding+Citizen+%282009%29+R5+DVDRip+XviD-MAX&amp;tr=udp%3A%2F%2Ftracker.openbittorrent.com%3A80&amp;tr=udp%3A%2F%2Fopen.demonii.com%3A1337&amp;tr=udp%3A%2F%2Ftracker.coppersurfer.tk%3A6969&amp;tr=udp%3A%2F%2Fexodus.desync.com%3A6969","seeders":38,"leechers":1,"uploader":"extremezone","files":-1,"time":1259806600,"description":"Law Abiding Citizen (2009) R5 DVDRip XviD-MAX\n\nFormat                           : AVI\nFormat/Info                      : Audio Video Interleave\nFile size                        : 900 MiB\nDuration                         : 1h 44mn\nOverall bit rate                 : 1 209 Kbps\nWriting application              : VirtualDubMod 1.5.10.2 (build 2542/release)\nWriting library                  : VirtualDubMod build 2542/release\nOriginal source form             : MAX TORRENTZ\nCopyright                        : SIGISMUNT\n\nVideo\nFormat                           : xvid\nCodec ID                         : xvid\nDuration                         : 1h 44mn\nBit rate                         : 1 068 Kbps\nWidth                            : 720 pixels\nHeight                           : 320 pixels\nDisplay aspect ratio             : 2.25:1\nFrame rate                       : 25.000 fps\nResolution                       : 24 bits\nBits/(Pixel*Frame)               : 0.185\nStream size                      : 796 MiB (88%)\n\nAudio\nID                               : 1\nFormat                           : MPEG Audio\nFormat version                   : Version 1\nFormat profile                   : Layer 3\nCodec ID                         : 55\nCodec ID/Hint                    : MP3\nDuration                         : 1h 44mn\nBit rate mode                    : Constant\nBit rate                         : 128 Kbps\nChannel(s)                       : 2 channels\nSampling rate                    : 44.1 KHz\nResolution                       : 16 bits\nStream size                      : 95.3 MiB (11%)\nAlignment                        : Aligned on interleaves\nInterleave, duration             : 26 ms (0.65 video frame)\nInterleave, preload duration     : 26 ms &lt;a href=&quot;\nhttp://www.imdb.com/title/tt1197624/&quot; rel=&quot;nofollow&quot; target=&quot;_NEW&quot;&gt;\nhttp://www.imdb.com/title/tt1197624/&lt;/a&gt;\n\nScreens: &lt;a href=&quot;\nhttp://www.postimg.com/image/9000/8533.jpg&quot; rel=&quot;nofollow&quot; target=&quot;_NEW&quot;&gt;\nhttp://www.postimg.com/image/9000/8533.jpg&lt;/a&gt; &lt;a href=&quot;\nhttp://www.postimg.com/image/9000/8534.jpg&quot; rel=&quot;nofollow&quot; target=&quot;_NEW&quot;&gt;\nhttp://www.postimg.com/image/9000/8534.jpg&lt;/a&gt; &lt;a href=&quot;\nhttp://www.postimg.com/image/9000/8535.jpg&quot; rel=&quot;nofollow&quot; target=&quot;_NEW&quot;&gt;\nhttp://www.postimg.com/image/9000/8535.jpg&lt;/a&gt; &lt;a href=&quot;\nhttp://www.postimg.com/image/9000/8536.jpg&quot; rel=&quot;nofollow&quot; target=&quot;_NEW&quot;&gt;\nhttp://www.postimg.com/image/9000/8536.jpg&lt;/a&gt;\n\nScreenCaps: &lt;a href=&quot;\nhttp://www.postimg.com/image/9000/8537.jpg&quot; rel=&quot;nofollow&quot; target=&quot;_NEW&quot;&gt;\nhttp://www.postimg.com/image/9000/8537.jpg&lt;/a&gt;\n\nLaw Abiding Citizen (2009) R5 DVDRip XviD-MAX Torrent Free Download &lt;a href=&quot;\nhttp://thepiratebay.se/user/extremezone/0/7&quot; rel=&quot;nofollow&quot; target=&quot;_NEW&quot;&gt;\nhttp://thepiratebay.se/user/extremezone/0/7&lt;/a&gt;","torrent":{"xt":"urn:btih:348683738a4438d253f5e324ae7d7fc8ff470d80","amp;dn":"Law+Abiding+Citizen+%282009%29+R5+DVDRip+XviD-MAX","amp;tr":["udp%3A%2F%2Ftracker.openbittorrent.com%3A80","udp%3A%2F%2Fopen.demonii.com%3A1337","udp%3A%2F%2Ftracker.coppersurfer.tk%3A6969","udp%3A%2F%2Fexodus.desync.com%3A6969"],"infoHash":"348683738a4438d253f5e324ae7d7fc8ff470d80","infoHashBuffer":{"type":"Buffer","data":[52,134,131,115,138,68,56,210,83,245,227,36,174,125,127,200,255,71,13,128]},"announce":[],"urlList":[]}}